<?xml version="1.0" encoding="utf-8"?>
<!-- Generator: Adobe Illustrator 26.2.1, SVG Export Plug-In . SVG Version: 6.00 Build 0)  -->
<svg version="1.1" id="Capa_1" xmlns="http://www.w3.org/2000/svg" xmlns:xlink="http://www.w3.org/1999/xlink" x="0px" y="0px"
	 viewBox="0 0 700 150.84" style="enable-background:new 0 0 700 150.84;" xml:space="preserve">
<style type="text/css">
	.st0{fill:#FFFDFD;}
	.st1{fill:#FFFFFF;}
</style>
<g>
	<g>
		<path class="st0" d="M100.88,53.05L97.75,70.8H79.2L90.68,5.68h29.71c18.47,0,28.91,8.35,26.26,23.45
			c-2.57,14.61-14.86,23.93-35.25,23.93H100.88z M112.36,38.92c9.8,0,15.1-3.45,16.22-9.64c1.04-6.02-3.13-9.56-12.53-9.56h-9.31
			l-3.37,19.19H112.36z"/>
		<path class="st0" d="M141.1,70.8l11.48-65.12h18.47L159.57,70.8H141.1z"/>
		<path class="st0" d="M207.91,70.8l0.8-4.58c-4.82,4.1-11.16,6.58-18.71,6.58c-15.66,0-24.97-10.52-22.64-23.53
			c2.25-13.01,15.34-23.61,30.99-23.61c7.55,0,13.01,2.49,16.3,6.58l0.8-4.58H234l-7.55,43.12H207.91z M196.34,59.16
			c7.47,0,14.29-4.18,15.34-9.88c1.04-5.78-4.34-9.96-11.8-9.96c-7.71,0-14.85,4.66-15.82,9.96
			C183.09,54.5,188.55,59.16,196.34,59.16z"/>
		<path class="st0" d="M256.32,27.68l-0.96,5.62c4.9-4.82,11.72-7.63,19.67-7.63c14.29,0,21.76,8.59,19.43,21.6l-4.1,23.53h-18.55
			l4.1-23.53c0.96-5.22-2.81-7.95-9.48-7.95c-6.18,0-11,2.65-12.04,8.51l-4.01,22.96h-18.55l7.55-43.12H256.32z"/>
		<path class="st0" d="M365.99,72.81c-22.8,0-38.7-15.5-35.33-34.61c3.37-19.11,24.73-34.53,47.54-34.53
			c9.23,0,17.18,2.41,22.4,6.66l-3.05,17.5c-5.14-4.82-11.8-7.79-20.64-7.79c-14.85,0-27.22,8.03-28.99,18.15
			c-1.77,10.04,7.71,18.23,22.56,18.23c7.71,0,16.54-2.25,23.45-7.07l-2.97,16.7C384.06,70.48,375.22,72.81,365.99,72.81z"/>
		<path class="st0" d="M452.38,49.28c-2.33,13.01-16.78,23.53-32.36,23.53c-15.66,0-26.42-10.52-24.09-23.53
			c2.25-13.01,16.78-23.61,32.44-23.61C443.95,25.67,454.63,36.27,452.38,49.28z M422.75,57.63c7.07,0,12.77-3.53,13.65-8.35
			c0.8-4.82-3.69-8.43-10.76-8.43c-7.07,0-12.85,3.61-13.65,8.43C411.11,54.1,415.69,57.63,422.75,57.63z"/>
		<path class="st0" d="M476.62,27.68l-0.96,5.62c4.9-4.82,11.72-7.63,19.67-7.63c14.29,0,21.76,8.59,19.43,21.6l-4.1,23.53h-18.55
			l4.1-23.53c0.96-5.22-2.81-7.95-9.47-7.95c-6.18,0-11,2.65-12.04,8.51l-4.01,22.96h-18.55l7.55-43.12H476.62z"/>
		<path class="st0" d="M549.85,8.97l-2.49,14.37h8.27l-2.41,13.65h-8.27l-5.94,33.8h-18.55l5.94-33.8h-7.95l2.41-13.65h7.95
			l2.09-11.8L549.85,8.97z"/>
		<path class="st0" d="M580.76,42.53c-5.46,0-9.15,3.13-9.88,7.31l-3.69,20.96h-18.55l7.55-43.12h16.62l-0.8,4.9
			c4.34-4.34,10.6-6.91,17.5-6.91c3.69,0,7.07,0.72,9.72,2.25l-10.2,15.34C586.38,42.7,583.4,42.53,580.76,42.53z"/>
		<path class="st0" d="M647.16,49.28c-2.33,13.01-16.78,23.53-32.36,23.53c-15.66,0-26.42-10.52-24.09-23.53
			c2.25-13.01,16.78-23.61,32.44-23.61C638.73,25.67,649.41,36.27,647.16,49.28z M617.53,57.63c7.07,0,12.77-3.53,13.65-8.35
			c0.8-4.82-3.69-8.43-10.76-8.43s-12.85,3.61-13.65,8.43C605.89,54.1,610.46,57.63,617.53,57.63z"/>
		<path class="st0" d="M647.23,70.8l11.48-65.12h18.47L665.7,70.8H647.23z"/>
		<path class="st0" d="M685.93,50.4c6.02,0,10.2,4.5,9.15,10.2c-0.96,5.62-6.66,10.2-12.69,10.2c-6.18,0-10.28-4.58-9.31-10.2
			C674.13,54.9,679.75,50.4,685.93,50.4z"/>
	</g>
	<path class="st0" d="M40.14,110.97l0.43-6.53C14.3,85.1,9.51,64.19,31.82,53.69c1.79-0.85,3.76-1.62,5.85-2.3
		c4.16-1.36,13.01-2.96,19.32-3.81c0.25-0.03,0.8-0.12,1.51-0.23c2.55-0.39,7.2-1.14,7.94-1.21c2.51-1.59,3.71-2.39,7.82-4.3
		c-1.6,0.01-7.42-0.1-10.31-0.08c-0.46,0-0.85,0.01-1.13,0.02c-11.65,0.48-25.88,2.15-33.65,4.69c-2.33,0.76-4.52,1.62-6.52,2.56
		C-4.29,61.74,4.19,88.01,40.14,110.97z"/>
	<path class="st0" d="M202.82,84.91c-0.13-0.11-0.55-0.44-1.11-0.88c-1.02-0.8-2.54-1.97-3.8-2.84c0.46,2.02,0.81,3.68,0.99,5.24
		c1.03,0.81,2.72,2.58,3.75,3.69c0.44,0.48,0.76,0.84,0.85,0.95c13.51,17.12,13.81,35.09-3.23,43.11c-1.79,0.85-3.76,1.62-5.84,2.3
		c-3.38,1.11-6.91,2.05-10.56,2.83c-0.31,0.07-0.62,0.13-0.93,0.2c-1.34,0.27-2.7,0.52-4.07,0.75c-1.15,0.19-2.3,0.37-3.48,0.52
		c-5.04,0.68-10.31,1.06-15.77,1.1c-1.89,0.01-3.8-0.01-5.74-0.08c-11.29-0.4-23.35-2.2-36.03-5.66c-2.02-0.55-4.05-1.15-6.1-1.79
		c-3.55-1.1-7.14-2.33-10.77-3.69l-6.16,0.8l-1.76,0.23c6.16,2.45,12.48,4.59,18.86,6.43c2.05,0.59,4.1,1.15,6.15,1.67
		c12.09,3.09,24.29,5.08,35.96,5.96c1.88,0.14,3.74,0.26,5.59,0.34c2.09,0.09,4.16,0.15,6.2,0.17c1.41,0.01,2.81,0.01,4.2-0.01
		c3.01-0.05,5.95-0.18,8.82-0.4c0,0,0.01,0,0.01,0c8.89-0.67,17.05-2.15,24.09-4.45c2.32-0.77,4.5-1.63,6.5-2.57
		C232.83,127.81,227.74,105.4,202.82,84.91z"/>
	<path class="st1" d="M106.22,126.24c0,0,6.52-2.06,1.18-7.83c0,0-3-3.5-13.33-6.42c1.09-0.98,3.06-2.8,5.08-4.95l2.58,1.92
		c0.14,0.13,0.28,0.24,0.45,0.34c0.13,0.07,0.27,0.13,0.42,0.17c1.23,0.37,2.54-0.38,2.94-1.67c0.26-0.85,0.05-1.72-0.46-2.33
		c-0.27-0.32-0.63-0.57-1.05-0.7c-0.07-0.02-0.14-0.03-0.21-0.05l-1.73-1.04c2.9-3.63,5-7.46,3.35-9.67l-1.18-1.13
		c0,0-3.68,6.88-19.91,16.99c-0.73-0.12-1.49-0.23-2.26-0.34c-1.94-0.28-4.02-0.52-6.24-0.73c0,0-0.22-0.03-0.58-0.09
		c-0.92-0.15-2.87-0.45-5.24-0.82c-1.7-0.26-3.61-0.56-5.51-0.84c-1.92-0.29-3.83-0.57-5.47-0.8l3.73-1.79l2.54-1.21
		c0,0,0.36-0.38,0.44-0.7c0.05-0.19,0-0.36-0.29-0.42c-0.34-0.06-1.01,0.04-2.25,0.46l-1.32,0.44l-4.79,1.6l-3.72-6.28l-0.55-0.93
		l-2.77-4.67c0,0-2.34-4.51-1.63,1.05c0,0,1.45,7.68,3.65,11.51l-12.06,2.51c0,0-1.77,0.77,0.82,0.9l11.9-0.1
		c0.18,0.38,0.44,0.83,0.74,1.31c0.01,0.01,0.01,0.02,0.02,0.02c0.11,0.18,0.21,0.34,0.34,0.54c1.03,1.5,2.73,3.06,5.15,4.63
		c1.31,0.84,3.04,1.83,5.66,2.96c-4.77,0.67-18.72,2.27-35.17,0.72c0,0-7.27,0.07,5.66,3.79c0,0,0.8,2.33,1.21,3.5
		c0.52,1.47,3.46,1.36,3.63-0.19c0.09-0.8-0.69-2.38-0.69-2.38c4.19,0.68,8.49,0.89,14.12,0.78c0,0,1.9,3.23,2.84,4.28
		c0.41,0.45,0.96,0.65,1.55,0.7c0.23,0.02,0.46,0.02,0.69,0c1.24-0.15,2.47-0.91,2.72-1.75c0.17-0.56,0.15-1.12-0.03-1.63
		c-0.11-0.34-0.3-0.66-0.54-0.93l-0.58-0.99c3.7-0.27,7.57-0.72,11.53-1.37c1.29-0.21,2.58-0.44,3.89-0.69
		c0.87,0.26,1.78,0.53,2.74,0.8c0.99,0.28,2.03,0.57,3.13,0.87c2.3,0.62,4.84,1.27,7.64,1.95c0,0,2.32,0.6,5.48,1.03
		C97.98,127.08,102.59,127.33,106.22,126.24z"/>
</g>
</svg>
