<?xml version="1.0" encoding="utf-8"?>
<!-- Generator: Adobe Illustrator 26.2.1, SVG Export Plug-In . SVG Version: 6.00 Build 0)  -->
<svg version="1.1" id="Capa_1" xmlns="http://www.w3.org/2000/svg" xmlns:xlink="http://www.w3.org/1999/xlink" x="0px" y="0px"
	 viewBox="0 0 367.48 153.25" style="enable-background:new 0 0 367.48 153.25;" xml:space="preserve">
<style type="text/css">
	.st0{fill:#FFFFFF;}
</style>
<g>
	<g>
		<path class="st0" d="M143.92,6.74l-2.69,15.01h-35.16l-2.61,14.85h27.33l-2.61,15.01h-27.33L97.09,72.9H78.16L89.83,6.74H143.92z"
			/>
		<path class="st0" d="M172.48,74.94c-23.17,0-39.33-15.75-35.9-35.16S161.71,4.7,184.88,4.7c9.38,0,17.46,2.45,22.76,6.77
			l-3.1,17.79c-5.22-4.9-11.99-7.91-20.97-7.91c-15.09,0-27.66,8.16-29.45,18.44c-1.79,10.2,7.83,18.52,22.93,18.52
			c7.83,0,16.81-2.28,23.82-7.18l-3.02,16.97C190.84,72.58,181.86,74.94,172.48,74.94z"/>
		<path class="st0" d="M215.55,52.18c6.12,0,10.36,4.57,9.3,10.36c-0.98,5.71-6.77,10.36-12.89,10.36c-6.28,0-10.44-4.65-9.46-10.36
			C203.56,56.75,209.27,52.18,215.55,52.18z"/>
	</g>
	<g>
		<path class="st0" d="M38.65,112.34l0.43-6.63C12.39,86.05,7.53,64.8,30.2,54.14c1.82-0.86,3.82-1.64,5.94-2.34
			c4.23-1.38,13.22-3.01,19.63-3.87c0.26-0.03,0.82-0.12,1.53-0.23c2.59-0.4,7.32-1.15,8.07-1.23c2.55-1.62,3.77-2.43,7.95-4.37
			c-1.63,0.01-7.54-0.1-10.48-0.08c-0.47,0-0.86,0.01-1.15,0.02c-11.84,0.49-26.3,2.19-34.19,4.77c-2.37,0.77-4.6,1.64-6.63,2.6
			C-6.5,62.31,2.12,89,38.65,112.34z"/>
		<path class="st0" d="M203.96,85.86c-0.13-0.11-0.56-0.45-1.13-0.9c-1.04-0.82-2.58-2-3.86-2.88c0.47,2.05,0.83,3.74,1.01,5.32
			c1.05,0.83,2.77,2.62,3.81,3.75c0.45,0.49,0.77,0.86,0.86,0.97c13.73,17.4,14.04,35.66-3.28,43.81c-1.82,0.86-3.83,1.65-5.94,2.34
			c-3.43,1.12-7.02,2.08-10.73,2.88c-0.31,0.07-0.63,0.13-0.94,0.2c-1.36,0.28-2.74,0.53-4.14,0.77c-1.17,0.19-2.34,0.37-3.53,0.53
			c-5.13,0.69-10.47,1.07-16.02,1.11c-1.92,0.01-3.86-0.01-5.83-0.08c-11.47-0.4-23.73-2.23-36.62-5.75
			c-2.05-0.56-4.12-1.17-6.2-1.82c-3.61-1.12-7.26-2.36-10.95-3.75l-6.26,0.81l-1.79,0.23c6.26,2.49,12.68,4.66,19.16,6.53
			c2.08,0.6,4.16,1.16,6.25,1.7c12.29,3.14,24.69,5.17,36.54,6.06c1.91,0.14,3.8,0.26,5.68,0.35c2.12,0.1,4.22,0.15,6.3,0.17
			c1.43,0.01,2.86,0.01,4.27-0.01c3.06-0.05,6.05-0.19,8.96-0.41c0,0,0.01,0,0.01,0c9.03-0.68,17.32-2.18,24.48-4.52
			c2.36-0.78,4.57-1.65,6.6-2.61C234.46,129.45,229.28,106.67,203.96,85.86z"/>
		<path class="st0" d="M105.8,127.86c0,0,6.63-2.09,1.2-7.95c0,0-3.05-3.55-13.54-6.53c1.11-0.99,3.11-2.84,5.16-5.03l2.62,1.95
			c0.14,0.13,0.29,0.25,0.46,0.34c0.13,0.07,0.27,0.13,0.42,0.18c1.25,0.38,2.58-0.38,2.99-1.7c0.26-0.86,0.06-1.75-0.47-2.37
			c-0.27-0.33-0.64-0.58-1.07-0.71c-0.07-0.02-0.14-0.03-0.21-0.05l-1.76-1.05c2.95-3.69,5.08-7.58,3.4-9.83l-1.2-1.15
			c0,0-3.74,6.99-20.23,17.26c-0.74-0.12-1.51-0.24-2.3-0.35c-1.97-0.28-4.08-0.53-6.34-0.74c0,0-0.22-0.03-0.59-0.09
			c-0.93-0.15-2.91-0.46-5.33-0.84c-1.73-0.27-3.67-0.57-5.6-0.86c-1.95-0.29-3.89-0.58-5.56-0.82l3.8-1.81l2.58-1.23
			c0,0,0.36-0.39,0.45-0.71c0.05-0.2,0-0.37-0.29-0.42c-0.35-0.06-1.03,0.04-2.28,0.46l-1.35,0.45l-4.87,1.63l-3.78-6.38l-0.56-0.94
			l-2.82-4.75c0,0-2.38-4.58-1.66,1.07c0,0,1.47,7.81,3.71,11.7l-12.26,2.56c0,0-1.79,0.79,0.83,0.92l12.09-0.1
			c0.18,0.39,0.44,0.84,0.75,1.33c0.01,0.01,0.01,0.02,0.02,0.02c0.11,0.18,0.21,0.35,0.35,0.55c1.04,1.52,2.77,3.11,5.24,4.7
			c1.33,0.86,3.09,1.86,5.75,3.01c-4.84,0.68-19.02,2.31-35.73,0.73c0,0-7.39,0.07,5.75,3.85c0,0,0.81,2.36,1.23,3.56
			c0.52,1.49,3.51,1.38,3.69-0.2c0.09-0.81-0.7-2.42-0.7-2.42c4.26,0.69,8.63,0.9,14.35,0.79c0,0,1.93,3.28,2.89,4.35
			c0.42,0.46,0.98,0.66,1.57,0.72c0.23,0.02,0.46,0.02,0.7,0c1.26-0.15,2.51-0.92,2.77-1.78c0.17-0.56,0.15-1.14-0.03-1.66
			c-0.12-0.35-0.31-0.67-0.55-0.94l-0.59-1c3.76-0.28,7.69-0.73,11.72-1.39c1.31-0.21,2.63-0.44,3.95-0.7
			c0.88,0.27,1.81,0.54,2.78,0.82c1.01,0.29,2.07,0.58,3.18,0.88c2.34,0.63,4.91,1.3,7.76,1.99c0,0,2.36,0.61,5.56,1.05
			C97.43,128.71,102.11,128.97,105.8,127.86z"/>
	</g>
	<g>
		<path class="st0" d="M255.66,100.73c-0.97,2.37-3.83,3.77-7.27,3.77c-8.73,0-11.75-6.68-11.75-13.63
			c0-8.24,5.17-13.79,11.58-13.79c3.34,0,5.76,1.29,7.43,3.99v-3.29h7v26.78c0,7.97-5.82,12.28-13.2,12.28
			c-7.38,0-12.82-4.26-12.82-11.1h6.52c0,3.18,2.32,5.06,5.82,5.06c3.72,0,6.68-2.21,6.68-5.71V100.73z M255.88,91.67
			c0-5.77-1.99-8.51-5.98-8.51c-3.93,0-5.98,2.64-5.98,8.08c0,4.74,2.53,7.76,5.98,7.76C253.29,99,255.88,96.15,255.88,91.67z"/>
		<path class="st0" d="M265.73,104.28V77.77h6.57v3.18c2.32-3.56,5.01-3.88,7.87-3.88h0.92v7.17c-0.65-0.11-1.29-0.16-1.94-0.16
			c-4.31,0-6.41,2.15-6.41,6.41v13.79H265.73z"/>
		<path class="st0" d="M280.82,91.03c0-8.41,5.23-13.96,13.63-13.96c8.3,0,13.47,5.5,13.47,13.96c0,8.41-5.23,13.95-13.47,13.95
			C285.88,104.98,280.82,99.27,280.82,91.03z M300.86,91.03c0-5.39-2.16-8.03-6.41-8.03s-6.41,2.64-6.41,8.03s2.15,8.08,6.41,8.08
			S300.86,96.42,300.86,91.03z"/>
		<path class="st0" d="M327.69,104.28v-3.72c-1.83,3.02-4.58,4.42-8.24,4.42c-5.28,0-9-3.93-9-9.75V77.77h7v16.38
			c0,3.34,1.51,4.96,4.47,4.96c3.56,0,5.44-2.53,5.44-6.04v-15.3h6.95v26.51H327.69z"/>
		<path class="st0" d="M337.38,116.84V77.77h6.74l0.05,3.23c1.67-2.69,4.15-3.93,7.38-3.93c6.68,0,11.48,5.28,11.48,14.22
			c0,8.03-4.04,13.68-10.88,13.68c-3.29,0-5.87-1.35-7.87-4.15v16H337.38z M355.92,90.81c0-4.74-2.48-8.03-5.98-8.03
			c-3.34,0-5.93,3.12-5.93,7.6c0,5.76,1.99,8.62,5.87,8.62C353.98,99,355.92,96.25,355.92,90.81z"/>
	</g>
</g>
</svg>
